PathFileType	4	(X/Y/Z)	C:/Users/beibeiliu/ov580/test_trc/User3\sequence.4_training_dense_left.trc
DataRate	CameraRate	NumFrames	NumMarkers	Units	OrigDataRate	OrigDataStartFrame	OrigNumFrames
120	120	19	19	mm	120	27	209
Frame#	Time	ThumbCMC			ThumbMCP			ThumbIP			ThumbTip			IndexMCP			IndexPIP			IndexTip			MiddleMCP			MiddlePIP			MiddleTip			RingMCP			RingPIP			RingTip			PinkyMCP			PinkyPIP			PinkyTip			BackHand1			BackHand2			BackHand3	
		X0	Y0	Z0	X1	Y1	Z1	X2	Y2	Z2	X3	Y3	Z3	X4	Y4	Z4	X5	Y5	Z5	X6	Y6	Z6	X7	Y7	Z7	X8	Y8	Z8	X9	Y9	Z9	X10	Y10	Z10	X11	Y11	Z11	X12	Y12	Z12	X13	Y13	Z13	X14	Y14	Z14	X15	Y15	Z15	X16	Y16	Z16	X17	Y17	Z17	X18	Y18	Z18	
26	0.216667	-120.148	-23.0013	42.2945	-95.1963	-29.7607	28.3735	-75.7831	-36.2767	9.91373	-59.2286	-43.5166	-1.62534	-118.856	-13.2255	-34.4548	-112.955	-15.0262	-60.9783	-104.24	-20.5862	-82.7185	-147.876	-7.80609	-48.5396	-137.867	-11.9153	-72.6547	-132.847	-18.5336	-102.19	-166.073	-11.5959	-43.3516	-165.755	-14.3264	-69.106	-164.806	-20.7863	-96.0606	-190.694	-18.6534	-27.8924	-189.356	-20.4682	-52.4037	-193.886	-21.6357	-73.0398	-177.27	-1.94507	6.4982	-183.462	2.76085	39.0492	-145.282	-1.01577	26.083	
27	0.225	-124.434	-23.1584	41.878	-96.2556	-30.3165	31.3765	-72.2818	-35.9698	9.56071	-54.7982	-43.1712	0.790257	-124.038	-13.1491	-35.0573	-109.096	-15.885	-62.0164	-106.434	-21.1237	-84.8443	-144.227	-8.30903	-48.5734	-141.854	-11.3137	-75.1809	-131.522	-19.9304	-106.793	-170.853	-12.1475	-41.7793	-168.732	-15.4691	-70.0774	-169.182	-20.3362	-92.5827	-193.02	-18.2012	-27.7263	-191.015	-20.5105	-47.7066	-194.222	-24.1785	-72.9424	-173.72	-2.69089	9.61136	-183.451	0.623541	38.7294	-147.052	-0.993731	23.5419	
28	0.233333	-119.979	-22.4454	41.0204	-100.163	-30.7297	29.8462	-76.0756	-37.5451	11.3206	-59.6557	-44.7259	0.574631	-122.107	-12.8126	-37.5656	-112.905	-16.1678	-61.1162	-104.963	-22.6973	-89.5915	-144.394	-8.95855	-44.52	-138.921	-12.105	-75.8747	-136.067	-19.7583	-102.065	-168.817	-13.2044	-44.0359	-166.34	-14.783	-69.4446	-167.043	-20.2522	-92.4833	-189.171	-18.3404	-27.2844	-193.543	-20.5062	-51.7265	-195.768	-23.1985	-74.5853	-176.956	-0.687792	5.7813	-180.864	2.14811	40.0793	-146.614	0.922759	26.2729	
29	0.241667	-122.054	-22.7442	43.8026	-99.6428	-29.6836	27.0576	-72.724	-35.9085	14.135	-57.269	-44.4785	1.85694	-124.506	-12.2665	-36.2125	-111.159	-15.6741	-61.1698	-100.929	-22.9653	-87.0286	-148.752	-7.14929	-47.9778	-141.449	-11.6827	-74.9279	-133.963	-19.5646	-106.834	-169.028	-12.9357	-42.7593	-168.562	-15.1466	-68.0661	-171.626	-19.9968	-92.9113	-188.117	-19.1322	-27.664	-192.975	-19.4158	-52.4721	-194.205	-23.2946	-74.8957	-173.12	-1.27263	10.8179	-179.518	0.58391	37.4909	-145.227	0.864222	26.8215	
30	0.25	-124.228	-21.7087	38.7882	-95.8136	-27.9308	26.9164	-77.9612	-37.1425	11.7552	-59.0318	-44.4415	-2.76686	-119.606	-11.5293	-39.2727	-114.449	-14.9893	-60.6765	-105.064	-21.6211	-89.4377	-150.15	-7.56786	-45.5559	-143.939	-10.8775	-75.4457	-138.438	-18.638	-103.598	-170.504	-11.1201	-44.283	-172.219	-14.5752	-69.6142	-167.35	-20.7732	-94.5108	-191.063	-18.2461	-29.6524	-194.999	-19.8864	-49.7304	-196.452	-21.9891	-77.3497	-178.476	1.08767	6.70701	-182.653	1.67144	38.0729	-147.805	1.86263	24.891	
31	0.258333	-123.742	-20.8596	41.7798	-95.2499	-28.2707	29.085	-78.139	-35.6138	12.0617	-57.7488	-42.8016	1.18192	-122.955	-10.9102	-39.9151	-110.981	-15.0531	-60.4321	-102.516	-21.03	-86.1304	-146.911	-6.78347	-49.2851	-141.368	-11.5153	-75.6908	-133.969	-17.4072	-105.596	-173.232	-11.9874	-41.6182	-170.482	-13.9317	-65.039	-169.199	-19.7313	-93.8384	-193.589	-18.4058	-26.354	-197.013	-18.6375	-51.6613	-197.42	-20.988	-71.5049	-177.191	1.46972	8.46324	-180.509	1.46052	39.4958	-143.374	0.582648	24.837	
32	0.266667	-123.295	-20.887	40.9614	-98.3374	-27.8395	29.4936	-75.3076	-36.1119	13.012	-61.1783	-43.475	-1.30045	-122.078	-10.7679	-34.0202	-112.828	-14.4221	-61.665	-105.879	-19.7165	-86.4494	-149.902	-6.50424	-45.7405	-143.591	-8.96289	-73.6054	-135.416	-17.3024	-103.698	-170.349	-9.97485	-40.9426	-172.055	-11.9617	-64.5863	-170.998	-18.5389	-91.5934	-194.795	-17.2525	-27.7856	-193.134	-17.5693	-50.659	-196.333	-20.637	-75.1204	-178.099	2.00514	7.7176	-180.634	2.02189	39.6685	-149.875	0.311243	25.743	
33	0.275	-121.047	-19.8047	43.3294	-96.8556	-27.3838	28.7285	-74.5146	-36.0006	8.59124	-62.3382	-43.35	-0.754315	-126.305	-10.8346	-36.3057	-115.782	-13.2713	-62.0438	-106.752	-19.8345	-86.4764	-147.8	-6.24305	-47.6672	-143.893	-9.04918	-73.0683	-137.032	-16.4763	-101.451	-170.139	-10.0319	-42.737	-171.846	-12.1379	-64.8092	-171.576	-18.4391	-93.8057	-194.725	-15.4759	-30.6189	-193.659	-17.9186	-51.004	-199.923	-18.4614	-72.4872	-174.656	2.09312	8.32481	-180.359	3.69918	35.6635	-148.502	2.80531	24.6046	
34	0.283333	-123.436	-19.9911	42.8623	-97.3448	-28.2458	30.5323	-78.152	-35.6848	11.7027	-63.0265	-42.7439	-3.3856	-124.542	-10.6974	-34.5554	-114.797	-14.2439	-64.966	-108.847	-18.2244	-84.3179	-147.577	-5.16399	-48.42	-144.64	-9.33697	-75.7839	-137.709	-17.8799	-106.329	-173.177	-8.99261	-41.104	-169.335	-10.889	-67.2955	-171.733	-17.7614	-94.5281	-194.719	-16.8519	-24.927	-194.625	-16.356	-51.7025	-196.048	-18.5061	-73.959	-174.859	2.10473	8.90102	-181.798	3.8281	39.9417	-149.612	2.45214	24.6379	
35	0.291667	-123.095	-21.1219	44.8808	-98.6406	-27.2922	26.4215	-80.7773	-34.7137	9.91692	-64.1709	-42.636	-4.61473	-123.46	-9.74104	-35.5014	-110.997	-14.2923	-63.6765	-107.482	-19.134	-83.7858	-151.979	-4.88168	-49.1313	-143.346	-9.48341	-75.1888	-136.673	-16.363	-104.571	-174.372	-8.89792	-41.3699	-171.409	-10.3599	-68.371	-171.109	-17.221	-92.0685	-194.426	-14.1416	-29.8216	-195.058	-15.8048	-52.5463	-199.431	-19.1385	-71.8223	-178.04	2.95068	6.77034	-183.786	5.03159	37.8158	-149.885	0.584905	26.7664	
36	0.3	-123.552	-20.8438	43.7829	-101.14	-27.7025	25.5944	-81.5821	-35.0766	9.82184	-60.3214	-41.7476	-1.72823	-128.632	-10.4279	-37.6942	-118.404	-12.6339	-60.9146	-112.021	-18.8443	-85.9166	-151.672	-4.93267	-46.2665	-143.907	-8.18361	-72.1422	-142.633	-15.6404	-103.238	-175.113	-9.50107	-39.4621	-172.926	-10.8481	-64.1272	-170.91	-17.8344	-95.9072	-193.004	-15.5446	-30.0562	-193.957	-16.7307	-51.2062	-199.962	-19.5576	-75.1773	-181.687	1.08366	9.76784	-183.854	4.66035	36.6032	-151.018	0.488548	25.8262	
37	0.308333	-125.528	-21.6144	40.5983	-101.072	-28.1314	23.9658	-81.972	-36.3246	10.1924	-61.9793	-42.958	-1.36423	-128.078	-10.8777	-41.7808	-117.35	-13.8782	-64.5696	-108.571	-20.7271	-87.1944	-154.719	-5.8239	-45.4078	-147.656	-8.6029	-74.0839	-144.575	-16.5092	-103.854	-177.312	-9.74524	-40.4169	-171.839	-11.2349	-68.7457	-176.106	-17.2117	-97.2332	-197.025	-15.9992	-25.0936	-198.874	-16.8308	-49.7396	-197.603	-17.5109	-70.9139	-177.68	0.604128	11.7325	-187.637	4.35909	37.4192	-147.409	0.955487	24.0633	
38	0.316667	-127.818	-22.518	39.7723	-100.106	-30.9637	27.0005	-79.2752	-38.4192	9.19175	-67.0837	-47.43	-3.16339	-128.63	-12.5862	-37.4916	-114.726	-16.6272	-64.1711	-111.973	-21.8039	-88.6495	-150.179	-7.21018	-45.7959	-147.732	-10.5878	-75.6052	-144.602	-18.4385	-108.081	-173.859	-10.9272	-42.5995	-174.047	-12.1238	-67.6403	-175.665	-17.7518	-93.9346	-195.372	-17.1637	-28.7766	-200.74	-17.3909	-50.1599	-203.082	-19.1132	-76.8259	-181.413	-1.50997	9.95577	-182.389	2.74123	36.7308	-147.451	0.895799	24.4997	
39	0.325	-129.425	-24.724	38.3801	-106.453	-33.8623	25.1953	-81.0297	-42.4587	5.09552	-63.7466	-50.8729	-9.22367	-129.212	-15.5979	-43.759	-119.056	-18.704	-63.4515	-111.802	-26.1481	-90.9209	-155.997	-9.35344	-51.4043	-150.093	-14.0647	-78.8243	-147.669	-20.6233	-105.312	-174.955	-13.4521	-42.7789	-177.03	-15.5886	-69.8366	-180.154	-21.1543	-97.8404	-198.154	-18.7246	-31.6023	-201.644	-20.177	-52.8893	-204.276	-24.2485	-77.3034	-179.101	-1.20994	8.3238	-186.149	0.443296	35.3824	-148.205	-2.35069	25.2341	
40	0.333333	-124.813	-28.5199	37.6061	-104.85	-37.0079	21.767	-82.1314	-45.2999	4.6346	-65.5327	-54.422	-7.7824	-131.858	-19.2007	-45.2958	-120.29	-24.9404	-66.9549	-116.735	-30.7456	-90.8257	-157.166	-14.2226	-51.6906	-152.124	-18.146	-77.8532	-144.559	-26.9105	-108.09	-179.925	-17.2755	-44.4836	-178.714	-18.9021	-69.6275	-178.902	-27.3172	-98.9162	-197.846	-22.6371	-29.0978	-204.76	-24.3805	-52.0224	-204.547	-25.9751	-75.7799	-184.305	-4.95842	3.54332	-186.332	-1.70796	34.6027	-152.219	-4.22527	22.4762	
41	0.341667	-126.331	-30.6458	37.6438	-108.454	-41.3418	24.3027	-81.8366	-50.6403	3.06485	-69.1825	-58.8363	-10.8108	-131.939	-25.7497	-42.2952	-122.609	-30.0049	-65.1858	-119.33	-37.4438	-90.1064	-158.603	-19.8543	-53.6128	-152.779	-24.6046	-79.3005	-151.782	-33.1946	-109.409	-182.489	-22.3282	-44.5798	-178.485	-25.8925	-69.827	-179.225	-33.8351	-96.9873	-203.29	-26.9098	-31.4918	-205.438	-29.8678	-53.9118	-209.844	-33.598	-79.0947	-183.124	-9.28472	4.26018	-184.438	-5.58849	33.3386	-150.969	-8.99928	22.9544	
42	0.35	-129.494	-35.0349	34.4375	-105.061	-43.086	24.0982	-87.4043	-54.4459	1.20992	-73.0598	-63.6857	-9.75355	-130.984	-30.8719	-41.758	-122.801	-38.0605	-69.2412	-117.076	-46.7118	-94.2594	-158.749	-26.4579	-55.2098	-155.783	-31.503	-80.9107	-148.402	-42.6531	-112.224	-183.031	-29.2732	-45.055	-184.678	-33.2352	-72.5376	-182.051	-41.4177	-97.4776	-204.027	-32.8982	-31.6195	-205.682	-35.8807	-54.4704	-208.299	-40.4814	-77.0557	-183.691	-13.0658	5.66681	-187.466	-8.81759	33.2826	-153.501	-12.7529	21.5938	
43	0.358333	-130.107	-35.4396	36.6531	-109.694	-44.9108	22.0999	-88.4705	-54.8966	6.9729	-70.5908	-66.058	-9.25936	-136.703	-36.6277	-45.1016	-123.083	-42.7454	-65.4583	-119.249	-51.5309	-89.2915	-162.044	-32.7686	-51.5557	-153.078	-39.4672	-81.7959	-151.34	-51.5685	-108.441	-182.125	-35.9956	-48.207	-183.304	-40.0084	-69.6033	-185.86	-50.7649	-97.2822	-201.259	-39.0977	-33.4123	-206.781	-43.6504	-53.4522	-209.339	-49.2503	-73.9645	-183.833	-17.5731	1.54973	-192.704	-10.8586	31.3684	-153.82	-15.3158	21.2674	
44	0.366667	-136.107	-34.7123	37.912	-107.758	-43.3744	24.8242	-84.2018	-52.8179	4.82521	-73.3343	-63.308	-7.68653	-135.46	-41.4562	-41.6401	-126.032	-48.003	-64.5923	-120.304	-60.0235	-90.1725	-159.981	-38.8971	-49.505	-156.831	-46.9365	-76.6974	-149.944	-60.9323	-107.025	-184.493	-43.8147	-48.2957	-184.366	-49.1425	-68.4052	-186.094	-62.7567	-95.4442	-202.892	-47.3716	-28.1466	-208.035	-54.636	-54.5112	-206.825	-63.6063	-76.5269	-187.297	-22.6279	3.08173	-190.322	-14.3926	29.7028	-155.117	-16.1677	16.7144	
